<svg width="173" height="70" fill="none" xmlns="http://www.w3.org/2000/svg"><path d="M49.504 50.228h-.77v-.938h2.006v3.012c0 .605.16 1.017.782 1.017.858 0 1.37-.885 1.37-1.795v-1.296h-.76v-.938h1.998v3.885c0 .148.069.218.215.218h.476v.926h-1.224c-.44 0-.643-.21-.643-.56v-.19c0-.065.008-.127.008-.164v-.07h-.016c-.057.169-.578 1.103-1.81 1.103-.986 0-1.628-.539-1.628-1.91v-2.296l-.004-.004zM55.175 53.38h.72v-2.938c0-.144-.069-.218-.215-.218h-.553v-.938h1.301c.44 0 .647.205.647.563v.227c0 .045 0 .107-.012.144-.008.029-.008.05-.008.07h.02c.05-.16.59-1.128 1.827-1.128 1.062 0 1.668.572 1.668 1.914v2.297h.72v.934h-1.948V51.33c0-.621-.163-1.025-.79-1.025-.895 0-1.42.869-1.42 1.745v1.322h.712v.934h-2.669v-.934.008zM61.571 53.38h.72v-3.156h-.768v-.939h2.01v4.091h.711v.934h-2.669v-.934l-.004.004zm.712-6.062h1.25v1.111h-1.25v-1.111zM64.594 53.38h.72v-3.156h-.768v-.939h.768v-.226c0-1.617 1.286-1.831 1.95-1.831.146 0 .276.008.362.016l.146.025v1.004l-.098-.02c-.065-.009-.154-.009-.28-.009-.273 0-.839.05-.839.786v.26h1.12v.938h-1.12v3.157h.839v.934h-2.796v-.934l-.004-.005zM70.632 51.215h.31v-.168c0-.642-.4-.864-.916-.864-.378 0-.712.123-.972.238-.155.07-.302.157-.428.247l-.46-.868c.16-.12.33-.227.538-.313.342-.16.834-.309 1.428-.309 1.338 0 2.046.692 2.046 1.98v2.012c0 .145.065.219.216.219h.447v.934h-1.167c-.46 0-.635-.247-.635-.531v-.062c0-.082.008-.14.02-.185.009-.029.009-.05.009-.07h-.02a1.796 1.796 0 01-.35.482c-.261.246-.635.481-1.217.481-.855 0-1.648-.506-1.648-1.527 0-1.54 1.998-1.696 2.795-1.696h.004zm-.83 2.289c.672 0 1.148-.733 1.148-1.362v-.165h-.204c-.496 0-1.664.078-1.664.835 0 .387.265.692.72.692z" fill="#fff"/><path d="M72.467 55.331s.029 0 .057.009c.029.012.078.012.155.012.35 0 .992-.12.992-.967v-4.157h-.769v-.938h2.006v5.144c0 1.688-1.403 1.922-2.075 1.922-.11 0-.203 0-.272-.008l-.098-.02v-.997h.004zm1.209-8.009h1.249v1.111h-1.25v-1.11zM84.523 50.392h-.77v-.934h2.007v3.017c0 .6.158 1.012.78 1.012.86 0 1.376-.885 1.376-1.79v-1.305h-.76v-.934h1.993v3.881c0 .148.069.218.215.218h.48v.926h-1.228c-.44 0-.643-.21-.643-.56v-.189c0-.07.012-.127.012-.169V53.5h-.02c-.057.164-.574 1.103-1.81 1.103-.985 0-1.628-.544-1.628-1.914v-2.297h-.004zM90.19 53.549h.716V50.61c0-.148-.065-.218-.215-.218h-.558v-.934h1.31c.44 0 .643.206.643.56v.226c0 .054 0 .111-.008.148-.012.03-.012.054-.012.07h.02c.05-.156.594-1.12 1.831-1.12 1.062 0 1.668.573 1.668 1.91v2.301h.72v.934h-1.948v-2.975c0-.622-.167-1.025-.79-1.025-.899 0-1.424.864-1.424 1.745v1.321h.716v.934H90.19V53.55zM96.59 53.55h.72v-3.157h-.769v-.935h2.006v4.087h.712v.938H96.59v-.938.004zm.712-6.063h1.245v1.111h-1.245v-1.111zM99.61 53.549h.72v-2.947c0-.14-.074-.21-.216-.21h-.553v-.934h1.293c.436 0 .651.206.651.56v.226c0 .054 0 .111-.008.148-.012.03-.012.054-.012.07h.02c.253-.51.887-1.12 1.697-1.12.7 0 1.188.318 1.383 1.096h.021c.28-.593.931-1.095 1.721-1.095 1.013 0 1.599.58 1.599 1.91v2.3h.724v.934h-1.957v-2.996c0-.572-.098-1.004-.684-1.004-.846 0-1.265.856-1.265 1.782v1.28h.72v.934h-1.949v-2.996c0-.551-.085-1.004-.671-1.004-.879 0-1.274.934-1.274 1.844v1.218h.708v.934h-2.669v-.934.004zM111.551 51.38h.313v-.169c0-.642-.399-.868-.915-.868-.379 0-.712.12-.973.235-.158.07-.305.16-.431.247l-.456-.865c.155-.119.33-.226.537-.317a3.476 3.476 0 011.432-.304c1.335 0 2.047.687 2.047 1.98v2.008c0 .148.069.218.216.218h.447v.934h-1.167c-.456 0-.631-.247-.631-.53v-.062c0-.078.008-.136.02-.185.008-.03.008-.05.008-.07h-.02a1.7 1.7 0 01-1.566.967c-.859 0-1.644-.506-1.644-1.531 0-1.54 1.993-1.696 2.795-1.696l-.012.008zm-.814 2.276c.671 0 1.147-.728 1.147-1.362v-.169h-.203c-.496 0-1.668.083-1.668.84 0 .387.264.691.724.691M113.976 53.549h.712l1.094-1.626-1.025-1.53h-.761v-.935h1.53l.769 1.268c.049.078.089.168.126.238a.298.298 0 01.057.12h.02a.326.326 0 01.057-.12l.134-.238.778-1.268h1.424v.934h-.692l-1.025 1.498 1.131 1.659h.606v.934h-1.375l-.879-1.407-.134-.239a.433.433 0 01-.061-.115h-.021c-.008.037-.028.074-.049.115a1.41 1.41 0 01-.138.247l-.854 1.4h-1.432v-.935h.008zM127.146 53.38h.72v-3.156h-.769v-.938h.769v-.227c0-1.617 1.29-1.835 1.949-1.835.146 0 .273.008.362.016l.147.025v1.004l-.098-.02c-.065-.009-.155-.009-.285-.009-.272 0-.834.05-.834.786v.26h1.119v.938h-1.119v3.157h.834v.934h-2.795v-.934zM133.188 51.216h.313v-.169c0-.642-.403-.864-.915-.864-.379 0-.712.12-.973.239-.158.07-.301.156-.431.247l-.456-.869c.155-.12.33-.226.538-.313.341-.16.838-.308 1.432-.308 1.334 0 2.042.691 2.042 1.983v2.009c0 .148.069.222.216.222h.447v.934h-1.167c-.46 0-.635-.246-.635-.535v-.057c0-.082.008-.14.02-.185.008-.03.008-.05.008-.07h-.02a1.713 1.713 0 01-.35.481c-.26.247-.63.482-1.216.482-.859 0-1.648-.502-1.648-1.527 0-1.535 1.998-1.696 2.795-1.696v-.004zm-.83 2.292c.675 0 1.151-.732 1.151-1.362v-.165h-.203c-.496 0-1.668.079-1.668.836 0 .383.264.691.72.691M138.298 51.216h.314v-.169c0-.642-.399-.864-.916-.864-.378 0-.712.12-.976.239-.155.07-.301.156-.428.247l-.459-.869c.158-.12.333-.226.541-.313.337-.16.834-.308 1.428-.308 1.338 0 2.046.691 2.046 1.983v2.009c0 .148.066.222.216.222h.444v.934h-1.168c-.456 0-.635-.246-.635-.535v-.057c0-.082.012-.14.02-.185.013-.03.013-.05.013-.07h-.021a1.886 1.886 0 01-.35.481 1.692 1.692 0 01-1.22.482c-.859 0-1.648-.502-1.648-1.527 0-1.535 1.998-1.696 2.795-1.696l.004-.004zm-.83 2.292c.672 0 1.148-.732 1.148-1.362v-.165h-.204c-.496 0-1.668.079-1.668.836 0 .383.264.691.72.691M141.545 55.027a3.114 3.114 0 001.375.333c.761 0 1.404-.346 1.404-1.263v-.317c0-.066 0-.128.008-.177.012-.03.012-.058.012-.09h-.02c-.305.444-.724.699-1.388.699-1.428 0-2.229-1.16-2.229-2.544 0-1.383.761-2.502 2.201-2.502.586 0 1.278.239 1.538.757h.02s0-.029-.012-.05c-.008-.02-.008-.057-.008-.118 0-.268.179-.474.565-.474h1.237v.939h-.476c-.146 0-.215.07-.215.197v3.59c0 1.724-1.335 2.374-2.621 2.374a3.819 3.819 0 01-1.769-.436l.378-.926v.008zm2.803-3.342c0-1.144-.565-1.449-1.224-1.449-.749 0-1.168.543-1.168 1.404 0 .86.439 1.522 1.249 1.522.582 0 1.147-.341 1.147-1.473M146.598 53.38h.721v-2.938c0-.148-.07-.218-.212-.218h-.557v-.939h1.293c.44 0 .664.21.664.614v.296c0 .09 0 .152-.009.226-.008.03-.008.062-.008.09h.017c.232-.72.809-1.287 1.578-1.287.069 0 .118 0 .155.008a.223.223 0 00.069.008v1.23c-.028 0-.057 0-.09-.012-.069-.008-.13-.008-.215-.008-1.005 0-1.453.89-1.453 1.836v1.094h.712v.935h-2.669v-.934h.004zM153.153 49.174c1.522 0 2.738 1.095 2.738 2.63s-1.216 2.63-2.726 2.63c-1.509 0-2.738-1.082-2.738-2.63 0-1.547 1.221-2.63 2.73-2.63h-.004zm.016 4.198c.81 0 1.473-.63 1.473-1.568 0-.938-.663-1.568-1.473-1.568-.809 0-1.481.642-1.481 1.568s.672 1.568 1.481 1.568zM156.119 53.38h.716v-5.127h-.769v-.935h2.006v2.445c0 .12 0 .227-.008.305l-.02.119h.02c.232-.481.867-1.017 1.713-1.017 1.098 0 1.737.572 1.737 1.914v2.297h.716v.934h-1.957V51.34c0-.621-.154-1.024-.777-1.024-.887 0-1.42.77-1.42 1.695v1.37h.712v.935h-2.665v-.934h-.004z" fill="#fff"/><path d="M10.766 13.775c2.335 0 4.231 1.918 4.231 4.28v12.838c0 7.103 5.733 12.878 12.764 12.837 7.002-.042 12.616-5.894 12.616-12.977V18.056H36.15v12.902c-.036 4.688-3.816 8.491-8.459 8.491-4.642 0-8.422-3.803-8.458-8.49h.02c0-.021-.004-.046-.004-.066 0-1.161.931-2.1 2.075-2.1 1.143 0 2.075.939 2.075 2.1v.066h.06c.038 2.313 1.885 4.181 4.171 4.214 2.36.033 4.289-1.976 4.289-4.363V18.056c0-2.363 1.892-4.28 4.231-4.28h8.459v17.183a17.158 17.158 0 01-4.232 11.24c-3.088 3.543-7.6 5.786-12.617 5.807-9.345.04-16.994-7.82-16.994-17.274V13.775z" fill="#E0B400"/><path d="M21.153 20.2c-1.652 0-3.01-1.276-3.17-2.906a3.997 3.997 0 01-.016-.317c0-.107.004-.213.017-.316a3.212 3.212 0 012.461-2.824c.228-.053.468-.082.712-.082 1.758 0 3.186 1.444 3.186 3.222 0 1.779-1.424 3.223-3.186 3.223h-.004zM57.238 39.52v.296c0 .21.26.325.574.325.313 0 .533-.107.533-.325 0-.309-.44-.412-.859-.572-.541-.215-1.045-.474-1.045-1.21 0-.894.724-1.178 1.428-1.178.703 0 1.35.26 1.35.77v.597h-.89v-.255c0-.157-.212-.243-.46-.243-.228 0-.428.066-.428.276 0 .28.33.387.692.522.606.21 1.212.465 1.212 1.227 0 .918-.777 1.26-1.533 1.26-.757 0-1.465-.334-1.465-.98v-.519h.891v.008zM60.839 40.215h.443v-2.56h-.443v-.733h3.063v1.186h-.834v-.4h-.79v.815h1.165v.786h-1.164v.844h.858v-.399h.834v1.185H60.84v-.732.008zM65.827 37.655h-.444v-.733h1.884v.733h-.443v1.757c0 .181.04.338.102.445.105.181.321.288.594.288.272 0 .451-.087.577-.28a.832.832 0 00.106-.449V37.66h-.443v-.733h1.883v.733H69.2v1.758c0 .403-.122.782-.33 1.045-.313.383-.83.555-1.359.555-.573 0-1.061-.201-1.35-.539-.24-.271-.334-.634-.334-1.062v-1.761zM73.46 40.215h.443v-2.56h-.443v-.733h2.966v1.186h-.834v-.342H74.9v.873h1.168v.786H74.9v.786h.5v.732h-1.94v-.732.004zM78.16 37.655h-.444v-.733h1.883v.733h-.443v1.757c0 .181.04.338.102.445.105.181.321.288.594.288.272 0 .451-.087.577-.28a.832.832 0 00.106-.449V37.66h-.443v-.733h1.883v.733h-.443v1.758c0 .403-.122.782-.33 1.045-.313.383-.83.555-1.358.555-.574 0-1.062-.201-1.351-.539-.24-.271-.334-.634-.334-1.062v-1.761zM84.12 40.215h.443v-2.503h-.472v.568h-.834v-1.354h3.609v1.354h-.834v-.568h-.472v2.503h.443v.732H84.12v-.732zM88.591 37.655h-.443v-.733h1.883v.733h-.443v1.757c0 .181.04.338.102.445.106.181.321.288.594.288.272 0 .451-.087.578-.28a.832.832 0 00.105-.449V37.66h-.443v-.733h1.884v.733h-.444v1.758c0 .403-.122.782-.33 1.045-.313.383-.83.555-1.358.555-.574 0-1.062-.201-1.351-.539-.24-.271-.334-.634-.334-1.062v-1.761zM93.832 40.215h.443v-2.56h-.443v-.733h1.798c.305 0 .566.013.797.079.485.152.798.539.798 1.131 0 .535-.244.885-.647 1.103v.013c.028.016.061.033.09.057.048.041.11.095.154.186l.305.596c.05.095.126.128.257.128h.138v.732h-.655c-.318 0-.452-.078-.562-.296l-.484-.938c-.065-.128-.138-.173-.346-.173h-.199v.679h.42v.733h-1.86v-.733l-.004-.004zm1.892-1.47c.313 0 .504-.156.504-.522 0-.185-.045-.358-.215-.445a.867.867 0 00-.383-.065h-.354v1.037h.452l-.004-.004zM100.956 36.856c1.216 0 2.091.902 2.091 2.054 0 1.153-.875 2.103-2.091 2.103-1.217 0-2.091-.922-2.091-2.103s.874-2.054 2.091-2.054zm0 3.285c.586 0 1.062-.531 1.062-1.23 0-.7-.48-1.182-1.062-1.182-.582 0-1.062.506-1.062 1.181s.48 1.23 1.062 1.23zM106.904 40.215h.444v-2.56h-.444v-.733h1.453l1.245 2.132c.049.087.089.181.118.264l.049.148h.02l-.016-.157c-.017-.09-.017-.201-.017-.292v-1.362h-.467v-.733h1.908v.733h-.444v3.292h-1.001l-1.253-2.12a2.15 2.15 0 01-.118-.262l-.049-.149h-.02l.016.157c.017.09.017.201.017.292v1.35h.468v.732h-1.909v-.732zM112.405 40.215h.33l1.086-3.293h1.135l1.087 3.293h.329v.732h-1.664v-.732h.346l-.151-.535h-1.025l-.151.535h.346v.732h-1.664v-.732h-.004zm2.275-1.3l-.208-.742c-.041-.127-.045-.23-.061-.304l-.016-.12h-.021a.605.605 0 01-.012.12c-.016.074-.028.173-.065.304l-.211.741h.594zM120.091 40.215h.443v-2.56h-.443v-.733h1.981c.228 0 .468.005.668.09.471.182.769.672.769 1.269 0 .596-.314 1.119-.786 1.284a1.91 1.91 0 01-.622.086h-.566v.568h.444v.733h-1.884v-.733l-.004-.004zm1.863-1.354c.155 0 .244-.02.35-.087.151-.094.212-.275.212-.493 0-.219-.065-.387-.196-.478a.621.621 0 00-.349-.09h-.44v1.148h.423zM124.88 40.215h.443v-2.56h-.443v-.733h1.798c.305 0 .566.013.797.079.485.152.798.539.798 1.131 0 .535-.244.885-.647 1.103v.013c.028.016.061.033.09.057a.569.569 0 01.154.186l.305.596c.049.095.126.128.257.128h.138v.732h-.655c-.317 0-.452-.078-.562-.296l-.484-.938c-.065-.128-.138-.173-.346-.173h-.199v.679h.419v.733h-1.859v-.733l-.004-.004zm1.892-1.47c.313 0 .504-.156.504-.522 0-.185-.045-.358-.216-.445a.862.862 0 00-.382-.065h-.354v1.037h.452l-.004-.004zM129.778 40.215h.33l1.086-3.293h1.135l1.087 3.293h.329v.732h-1.664v-.732h.346l-.151-.535h-1.025l-.15.535h.345v.732h-1.664v-.732h-.004zm2.116-4.396h.985l-.839.844h-.789l.647-.844h-.004zm.163 3.095l-.208-.74c-.04-.128-.044-.231-.061-.305l-.016-.12h-.02a.54.54 0 01-.013.12c-.016.074-.028.173-.065.304l-.211.741h.594zM135.788 40.215h.443v-2.503h-.472v.568h-.834v-1.354h3.609v1.354h-.834v-.568h-.472v2.503h.444v.732h-1.884v-.732zM139.938 40.215h.443v-2.56h-.443v-.733h1.884v.733h-.444v2.56h.444v.732h-1.884v-.732zM145.366 36.856c.484 0 1.607.153 1.607.807v.634h-.891v-.309c0-.226-.407-.288-.672-.288-.647 0-1.094.428-1.094 1.169 0 .831.488 1.3 1.151 1.3.179 0 .663-.045.663-.287v-.31h.891v.647c0 .613-1.074.794-1.623.794-1.216 0-2.107-.91-2.107-2.086 0-1.177.919-2.07 2.079-2.07h-.004zM148.315 40.215h.33l1.086-3.293h1.135l1.087 3.293h.329v.732h-1.664v-.732h.346l-.151-.535h-1.025l-.15.535h.345v.732h-1.664v-.732h-.004zm2.275-1.3l-.208-.742c-.041-.127-.045-.23-.061-.304l-.016-.12h-.021a.605.605 0 01-.012.12c-.016.074-.028.173-.065.304l-.211.741h.594zM49.097 16.977H47.05v-3.366h8.675v3.366h-2.047v8.075c0 .828.179 1.552.46 2.046.484.827 1.485 1.321 2.738 1.321s2.07-.387 2.66-1.292c.334-.543.485-1.218.485-2.07v-8.075h-2.047v-3.367h8.675v3.367h-2.047v8.075c0 1.864-.561 3.597-1.51 4.815-1.431 1.762-3.811 2.564-6.24 2.564-2.637 0-4.887-.93-6.217-2.486-1.099-1.243-1.534-2.926-1.534-4.893v-8.075l-.004-.005zM67.902 28.884h1.664v-6.288c0-.387-.179-.569-.561-.569h-1.23v-3.234h4.196c1.204 0 1.814.596 1.814 1.502v.646c0 .025 0 .078-.024.103h.053c.232-.49.561-.906.997-1.293.716-.646 1.814-1.267 3.478-1.267 2.482 0 4.451 1.267 4.451 4.996v5.408h1.665v3.235h-6.091v-7.815c0-1.243-.484-1.762-1.485-1.762-1.97 0-2.84 2.07-2.84 3.935v2.407h1.664v3.235h-7.755v-3.235l.004-.004zM85.503 28.884h1.664v-6.857h-1.79v-3.235h6.217v10.096h1.664v3.235h-7.755v-3.239zm1.713-15.27h4.325v3.495h-4.325v-3.494zM94.715 28.756h2.046V16.981h-2.046v-3.366h14.097v5.461h-3.836v-1.835h-3.634v3.753h5.347v3.622h-5.347v3.881h3.939v-1.835h3.837v5.461H94.71v-3.367h.005zM116.592 18.48c1.306 0 2.099.308 2.636.646.305.18.562.415.741.675h.053v-.235c0-.181-.025-.387-.025-.621V16.85h-1.79v-3.235h6.217v14.701c0 .387.179.568.561.568h.973v3.235h-3.813c-1.306 0-1.765-.75-1.765-1.4v-.078c0-.127 0-.234.024-.283.024-.054.024-.103.024-.128h-.052a3.132 3.132 0 01-.871 1.086c-.639.544-1.664 1.112-3.198 1.112-3.507 0-5.81-2.82-5.81-6.964 0-4.145 2.457-6.989 6.091-6.989l.004.005zm.919 10.248c1.331 0 2.608-1.009 2.608-3.157 0-1.762-.818-3.313-2.535-3.313-1.456 0-2.636 1.14-2.636 3.21 0 2.07 1.025 3.26 2.559 3.26h.004zM128.436 22.027h-1.79v-3.235h6.216v7.948c0 1.243.46 1.761 1.457 1.761 1.741 0 2.738-2.045 2.738-4.062v-2.407h-1.79v-3.235h6.217v9.523c0 .387.179.568.561.568h1.099v3.235h-4.069c-1.204 0-1.814-.596-1.814-1.502v-.362c0-.103.024-.181.024-.26v-.127h-.053a4.52 4.52 0 01-.972 1.268c-.692.646-1.79 1.292-3.507 1.292-2.328 0-4.325-1.268-4.325-4.997v-5.408h.008zM144.609 28.756h2.046V16.981h-2.046v-3.366h7.958v3.366h-1.33v3.91h1.533l2.686-3.91h-1.384v-3.366h7.523v3.366h-1.534l-3.889 5.305v.054c.126.078.281.181.46.337.28.285.638.675.948 1.322l2.071 4.165c.203.387.589.597 1.127.597h.793v3.366h-3.121c-1.534 0-2.099-.44-2.583-1.37l-2.739-5.643c-.231-.49-.59-.597-1.277-.597h-.614v4.244h1.92v3.366h-8.544v-3.366l-.004-.005z" fill="#fff"/></svg>