<svg width="43" height="44" viewBox="0 0 43 44" fill="none" xmlns="http://www.w3.org/2000/svg">
<path d="M0.85498 0.0411377C3.7633 0.0411377 6.1244 2.48105 6.1244 5.48645V21.8171C6.1244 30.8543 13.2635 38.2002 22.0188 38.1478C30.7387 38.0955 37.7308 30.6501 37.7308 21.6391V5.48645H32.4664V21.9009C32.4208 27.8646 27.7138 32.7025 21.9327 32.7025C16.1515 32.7025 11.4445 27.8646 11.3989 21.9009H11.4242C11.4242 21.8747 11.4192 21.8433 11.4192 21.8171C11.4192 20.3406 12.5794 19.1468 14.0032 19.1468C15.427 19.1468 16.5872 20.3406 16.5872 21.8171C16.5872 21.8486 16.5872 21.8747 16.5872 21.9009H16.6632C16.7088 24.8435 19.0092 27.2206 21.8567 27.2624C24.7954 27.3043 27.197 24.7492 27.197 21.7124V5.48645C27.197 2.48105 29.5531 0.0411377 32.4664 0.0411377H43.0002V21.9009C42.98 27.3776 40.9887 32.3831 37.7308 36.2001C33.8851 40.7082 28.2661 43.5617 22.0188 43.5879C10.3805 43.6403 0.85498 33.6397 0.85498 21.6129V0.0411377Z" fill="#E0B401"/>
<path d="M13.791 8.21793C11.7339 8.21793 10.0416 6.59481 9.844 4.52141C9.83386 4.39051 9.82373 4.25438 9.82373 4.11824C9.82373 3.98211 9.8288 3.84598 9.844 3.71508C10.0112 1.94536 11.2678 0.510727 12.9094 0.123273C13.1931 0.0552062 13.4921 0.0185547 13.7961 0.0185547C15.9849 0.0185547 17.7633 1.85635 17.7633 4.11824C17.7633 6.38014 15.99 8.21793 13.7961 8.21793H13.791Z" fill="#FAFAFA"/>
</svg>